<svg width="current" height="current" viewBox="0 0 36 36" xmlns="http://www.w3.org/2000/svg">
<g clip-path="url(#clip0_16_3)">
<rect width="36" height="36" fill="none"/>
<path d="M10.0859 29.9453C11.668 29.9453 14.9023 28.3516 17.2812 26.6641C25.4492 26.8867 31.5781 22.1875 31.5781 16.0469C31.5781 10.1523 25.6719 5.39453 18.2891 5.39453C10.9062 5.39453 5 10.1523 5 16.0469C5 19.8906 7.46094 23.3008 11.1641 25.0117C10.6367 26.043 9.65234 27.4258 9.125 28.1172C8.50391 28.9258 8.87891 29.9453 10.0859 29.9453ZM11.3164 28C11.2227 28.0352 11.1875 27.9648 11.2461 27.8945C11.9023 27.0859 12.8398 25.8672 13.2383 25.1055C13.5664 24.5078 13.4844 23.9688 12.7344 23.6172C9.05469 21.9062 6.94531 19.1758 6.94531 16.0469C6.94531 11.2539 11.9727 7.33984 18.2891 7.33984C24.6172 7.33984 29.6445 11.2539 29.6445 16.0469C29.6445 20.8516 24.6172 24.7656 18.2891 24.7656C18.0547 24.7656 17.6914 24.7539 17.2227 24.7422C16.7305 24.7305 16.3555 24.8945 15.9102 25.2461C14.4688 26.2891 12.3828 27.5664 11.3164 28Z" fill="#878787"/>
</g>
<defs>
<clipPath id="clip0_16_3">
<rect width="36" height="36" fill="white"/>
</clipPath>
</defs>
</svg>
