<svg xmlns="http://www.w3.org/2000/svg" viewBox="0 0 146.3 28.75"><defs><style>.cls-1{fill:#383838;}</style></defs><g id="레이어_2" data-name="레이어 2"><g id="레이어_1-2" data-name="레이어 1"><path class="cls-1" d="M11.77,18.07H6.22V28.56H0V0H11.74c3.71,0,10.09.94,10.09,9.78C21.83,15.92,17.64,18,11.77,18.07Zm-.58-3.67C14.28,14.4,16,13,16,9.86s-1.33-4.62-4.5-4.66H6.22v9.2Z"/><path class="cls-1" d="M47.21,28.56H40.53c.74-1.41.78-2.47.78-5.4,0-3.88-.67-5.75-5-5.75H31.88V28.56H25.11V.08H38.69c7.55,0,8.72,5.59,8.72,8.06,0,3.13-1.37,5.79-4.19,6.72,2.35,1.06,4,1.92,4,7.24Zm-10.09-16c3.09,0,4.58-1.06,4.58-3.88C41.7,7.28,41,5,37.55,5H31.88V12.6Z"/><path class="cls-1" d="M59.22,28.56c-3.48,0-8.56-2-8.56-7.79V8.53C50.66,3.4,54.92,0,59.93,0h4c5.16,0,8.91,3.36,8.91,8.45v12.4c0,4.61-4.34,7.67-7.82,7.67Zm3.68-4.7c2.5,0,4.15-1.37,4.15-3.87V8.92c0-2-1.33-3.68-4.11-3.68H60.75c-2.82,0-4.3,1.76-4.3,3.72V20c0,2.15,1,3.87,4,3.87Z"/><path class="cls-1" d="M83.24,24.41h13v4.18H76.9V.08h6.34Z"/><path class="cls-1" d="M106.91,28.56c-3.49,0-8.57-2-8.57-7.79V8.53C98.34,3.4,102.6,0,107.61,0h4c5.16,0,8.92,3.36,8.92,8.45v12.4c0,4.61-4.34,7.67-7.83,7.67Zm3.67-4.7c2.51,0,4.15-1.37,4.15-3.87V8.92c0-2-1.33-3.68-4.11-3.68h-2.19c-2.82,0-4.3,1.76-4.3,3.72V20c0,2.15,1.05,3.87,4,3.87Z"/><path class="cls-1" d="M146.3,13.42v6.33c0,5.64-2.39,8.45-7.28,8.88a38.17,38.17,0,0,1-6.06,0c-4.23-.11-8.76-2.7-8.76-8.76V9c0-5,3.67-9,9.77-9h2.78c5.13,0,7.94,2.66,9.19,6.37l-5.55,1.69c-.63-1.41-1.33-2.51-3.6-2.51H134.4c-2.81,0-4.26,1.76-4.26,3.84v9.81c0,3,1.41,4.46,3.91,4.46h2.66c3.64,0,4-2.23,4-5.24l0-1.76h-4.61V13.42Z"/></g></g></svg>
