<svg xmlns="http://www.w3.org/2000/svg" viewBox="0 0 179.33 28.2"><defs><style>.cls-1{fill:#383838;}</style></defs><g id="레이어_2" data-name="레이어 2"><g id="레이어_1-2" data-name="레이어 1"><path class="cls-1" d="M20.05,21.54c-1.66,5.8-10.87,7.81-16.13,4.91A8.75,8.75,0,0,1,.29,22.51C-.29,21.35-.06,19.34,1.56,19a2.87,2.87,0,0,1,3.29,1.28,6.35,6.35,0,0,0,2.9,2.59c3.41,1.16,7.31-.62,7.31-3.6,0-2.44-1.47-3.13-3.67-3.67C9,15,6.24,15.24,3.88,14.19c-4.71-2-4.95-8.66-1.54-11.91C4,.81,6.32.23,9.11.12,12.2,0,15.6.74,17.42,2.28,18.73,3.33,20.51,6,18.54,7.15c-1.62,1-3-.61-4.06-1.39A8.41,8.41,0,0,0,9,4.6c-2.24.27-4.06,1.47-3.87,3.79.12,1.66,1.9,2.21,3.41,2.4,2.28.31,4.68.27,6.88,1.12A7.38,7.38,0,0,1,20,16.4,9.36,9.36,0,0,1,20.05,21.54Z"/><path class="cls-1" d="M43.72,2.51a6.71,6.71,0,0,1-.08.93,1.89,1.89,0,0,1-.5.81,2.88,2.88,0,0,1-.86.35,6.49,6.49,0,0,1-1.12.23,10.11,10.11,0,0,1-1.12,0h-2c-.93,0-1.82,0-2.71,0,.08,3.17,0,7,0,15.55V23.4a2.69,2.69,0,0,0,0,.58,3.5,3.5,0,0,1,0,.62c0,.23-.07.5-.11.81a2.68,2.68,0,0,1-.16.73.52.52,0,0,0-.15.23l-.12.24a1.83,1.83,0,0,1-.73.73,2.82,2.82,0,0,1-1.9.19,1.77,1.77,0,0,1-1-.34,2.2,2.2,0,0,1-.51-.7,2.66,2.66,0,0,1-.27-.81,2.89,2.89,0,0,1-.11-.74V5.07c-.62,0-4.41,0-5.11-.16a11.67,11.67,0,0,1-1.5-.27,2.43,2.43,0,0,1-1.28-.73,1.71,1.71,0,0,1-.43-1.13A3.17,3.17,0,0,1,22,1.9a1.4,1.4,0,0,1,.62-.78A4,4,0,0,1,23.76.58,4.67,4.67,0,0,1,24.92.35c.43,0,.81,0,1.28,0,1.81,0,3.36,0,5.14,0,3,0,6,0,8.9.08a5.19,5.19,0,0,1,1.89.39,2.36,2.36,0,0,1,1.16.73A1.58,1.58,0,0,1,43.72,2.51Z"/><path class="cls-1" d="M67.11,20a17.38,17.38,0,0,1-1.43,3.25c-1.62,2.79-5,4.26-8,4.41a9.6,9.6,0,0,1-7.27-2.74c-3.1-3-3.56-6.85-3.52-11.1,0-2-.08-6.23,0-8.32,0-1.35-.12-3.25.73-4.48A3.1,3.1,0,0,1,52.14,1a2.46,2.46,0,0,1,.39,1.32c.23,3.44,0,9.13,0,10.75,0,3.05.19,5.69,1.32,7.31A3.9,3.9,0,0,0,57.75,22a4.56,4.56,0,0,0,3.52-2.47,6.27,6.27,0,0,0,.62-2,135,135,0,0,0,.5-15A2.77,2.77,0,0,1,65.29,0,2.91,2.91,0,0,1,67.92,2.4C68.5,7.35,68.19,16.32,67.11,20Z"/><path class="cls-1" d="M91.36,17.36a11.91,11.91,0,0,1-4.49,7.85c-2.78,2.05-6.54,2.63-10.06,2.79a12.06,12.06,0,0,1-3.55-.16,2.08,2.08,0,0,1-1.05-.42,1.64,1.64,0,0,1-.5-.7,3.45,3.45,0,0,1-.31-.85,5.23,5.23,0,0,1-.08-.69V3.09a3.78,3.78,0,0,1,.08-1,2.88,2.88,0,0,1,.23-.89,1.41,1.41,0,0,1,.43-.66A2.11,2.11,0,0,1,73,.12c.31-.08.66.07,1-.12l6.46.15c6.81.16,10.79,6.46,11.22,12A24.43,24.43,0,0,1,91.36,17.36ZM84.36,8c-1.4-2.28-4.8-2.7-7.82-2.74,0,1.47,0,2.82,0,4.37,0,1.86,0,3.63,0,5.26v7.89c3.17-.08,6-.39,7.93-3.33C86.44,16.32,86.25,11.1,84.36,8Z"/><path class="cls-1" d="M112.82,2.75a5.59,5.59,0,0,1-.35,1,3.65,3.65,0,0,1-.58.93c-.19.31-.39.58-.54.85l-.5.66L105.9,13.3,105,14.42V24.71a4.92,4.92,0,0,0-.12.81c-.08.24-.12.47-.23.74a.53.53,0,0,0-.08.23,1,1,0,0,0-.11.23,2.31,2.31,0,0,1-.66.7,2.93,2.93,0,0,1-1.94.19,1.56,1.56,0,0,1-.92-.38,2.17,2.17,0,0,1-.55-.62c-.07-.31-.23-.55-.27-.82a2.45,2.45,0,0,1-.07-.69V14.54l-.85-1.31-5-7.12-.43-.7c-.15-.23-.35-.5-.58-.81a4.8,4.8,0,0,1-.54-.93,4.41,4.41,0,0,1-.42-1,1.7,1.7,0,0,1,0-.77A1.68,1.68,0,0,1,92.63,1,4.56,4.56,0,0,1,93.44.5,1.82,1.82,0,0,1,94.68.19,2.41,2.41,0,0,1,96,.7a6.22,6.22,0,0,1,1.28,1.23c.39.51.77.93,1.12,1.47l.12.16c1.23,1.62,2.28,3.09,3.44,4.83.08.12.31.47.58.85a5.41,5.41,0,0,1,.5-.77c1.2-1.74,2.21-3.25,3.44-4.87l.08-.16c.39-.46.74-1,1.12-1.47a5.06,5.06,0,0,1,1.36-1.2,3.12,3.12,0,0,1,1.27-.54,2,2,0,0,1,1.28.31,5.4,5.4,0,0,1,.81.54,2.06,2.06,0,0,1,.5.85A1.28,1.28,0,0,1,112.82,2.75Z"/><path class="cls-1" d="M134,25.87a1.87,1.87,0,0,1-.43,1.08,2,2,0,0,1-1,.7,5.6,5.6,0,0,1-1.74.31c-.58,0-1.2,0-1.82.12h-.16c-2,0-4,0-6.14,0s-5.57.54-6.39-1.67a2.71,2.71,0,0,1-.15-.73,46.12,46.12,0,0,1-.08-5.11l.08-5.6V9.78c0-1.85,0-3.13.08-4.87V4.72c0-.51.07-1,.07-1.55a3.46,3.46,0,0,1,.43-1.51,1.84,1.84,0,0,1,.81-.92,2.13,2.13,0,0,1,1.2-.35c.35,0,.7,0,1,.07a2,2,0,0,1,.89.47,2,2,0,0,1,.42.66,3.82,3.82,0,0,1,.19.85,8.67,8.67,0,0,1,.12,1,3.51,3.51,0,0,0-.08.89V5l-.15,18.21,7.66.08h1.81a10,10,0,0,1,1.05.08,6.59,6.59,0,0,1,1,.19,1.51,1.51,0,0,1,.7.39,1.58,1.58,0,0,1,.54.77A5.47,5.47,0,0,1,134,25.87Z"/><path class="cls-1" d="M154.46,7.5A20.19,20.19,0,0,1,155,19.84a12.53,12.53,0,0,1-1.27,3.09,8.93,8.93,0,0,1-5.84,4.18,10.67,10.67,0,0,1-9.75-2.63c-3.17-3.09-4-8.43-3.71-12.53.27-3.79,2.44-9.13,6.77-10.75C148.16-1.43,152.49,2.28,154.46,7.5Zm-4.52,1.86c-1.12-3.33-3.33-5.26-7.19-3.44-2.29,1.08-3.1,4.21-3.25,6.69-.19,2.67.15,6.11,1.86,8.16a5.11,5.11,0,0,0,5,1.74,4.69,4.69,0,0,0,3.25-2.83,7.75,7.75,0,0,0,.7-1.93A16,16,0,0,0,149.94,9.36Z"/><path class="cls-1" d="M175.81,26.88a12.61,12.61,0,0,1-6.34,1.31c-9.28-.31-11-9.24-10.52-15.81.31-4,2.13-9.56,6.5-11.26,4-1.62,10.17-1,12.56,2.63a8.05,8.05,0,0,1,1.09,5.18c-.47,3.06-3.83,2.17-4.49,0A4.5,4.5,0,0,0,172.75,6c-2.51-1.54-5.6-.27-7.07,2.05-1.7,2.56-1.9,6.27-1.32,9.25a14.18,14.18,0,0,0,1.32,3.55A5.15,5.15,0,0,0,171.05,23c2.79-.7,3.41-2.51,3.41-4.68v0c-.66,0-1.24,0-1.47,0a4.63,4.63,0,0,1-1.67-.31,1.87,1.87,0,0,1-1-.73,1.54,1.54,0,0,1-.39-1.05,6.69,6.69,0,0,1,.08-.88,2.6,2.6,0,0,1,.5-.78,2.49,2.49,0,0,1,.74-.31,7.8,7.8,0,0,1,1-.23,8.87,8.87,0,0,1,1,0h3.52a3.07,3.07,0,0,1,1.85.5,2,2,0,0,1,.43.66,4.47,4.47,0,0,1,.19.85,8,8,0,0,1,.08.93v1.59C179.29,21.5,179,24.87,175.81,26.88Z"/></g></g></svg>