<svg xmlns="http://www.w3.org/2000/svg" viewBox="0 0 508.23 510"><defs><style>.cls-1{fill: currentColor;}</style></defs><g id="레이어_2" data-name="레이어 2"><g id="레이어_1-2" data-name="레이어 1"><path class="cls-1" d="M471.51,329.4c-19.57-18.64-43.67-35.13-71.62-49a19,19,0,1,0-16.9,34c24.54,12.18,45.51,26.48,62.32,42.49a81,81,0,0,1,24.92,58.53v34.34C470.23,462,459.8,472,447,472H61.24C48.42,472,38,462.05,38,449.81c0-15.1.14-31.14.42-47.7,2.8-22.17,14.24-40.81,34.93-57,18-14,42.59-25.71,73.09-34.68C200,294.72,253.09,293,254.08,293h.06c80.52-.3,145.94-65.91,145.94-146.5C400.08,65.72,334.36,0,253.58,0s-146.5,65.72-146.5,146.5a146.4,146.4,0,0,0,61.44,119.21C98.87,280.5,10.18,315.59.57,398.62a16.43,16.43,0,0,0-.13,1.85C.15,417.59,0,434.2,0,449.81,0,483,27.47,510,61.24,510H447c33.77,0,61.25-27,61.25-60.21V415.45A119.21,119.21,0,0,0,471.51,329.4ZM145.08,146.5A108.5,108.5,0,1,1,253.58,255h0A108.62,108.62,0,0,1,145.08,146.5Z"/></g></g></svg>
