<svg xmlns="http://www.w3.org/2000/svg" viewBox="0 0 367.02 408.28"><defs><style>.cls-1{fill: currentColor;}</style></defs><g id="레이어_2" data-name="레이어 2"><g id="레이어_1-2" data-name="레이어 1"><path class="cls-1" d="M115.45,408.28H63.38c-7.88,0-28-1.78-44.74-18.29A62,62,0,0,1,0,345.57V62.72C0,28.14,28.43,0,63.38,0H260.7c34.95,0,63.38,28.14,63.38,62.72v98a15.5,15.5,0,0,1-31,0v-98C293.08,45.23,278.55,31,260.7,31H63.38C45.52,31,31,45.23,31,62.72V345.57a31.18,31.18,0,0,0,9.41,22.35,33.63,33.63,0,0,0,23,9.36h52.07a15.5,15.5,0,0,1,0,31Z"/><path class="cls-1" d="M246.41,127.38H77.67a15.5,15.5,0,1,1,0-31H246.41a15.5,15.5,0,1,1,0,31Z"/><path class="cls-1" d="M246.41,191.27H77.67a15.5,15.5,0,1,1,0-31H246.41a15.5,15.5,0,1,1,0,31Z"/><path class="cls-1" d="M182.88,255.17H78.69a15.5,15.5,0,0,1,0-31H182.88a15.5,15.5,0,0,1,0,31Z"/><path class="cls-1" d="M352.65,233.26c-18.78-18.78-49.13-18.95-69.09-.39-.3.28-.58.56-.84.85l-8.28,8h0l-3.05,3-76.7,74.18a15.51,15.51,0,0,0-4.15,7L173,388.6a15.5,15.5,0,0,0,14.93,19.68,15.76,15.76,0,0,0,4-.51l62.93-16.62a15.43,15.43,0,0,0,6.6-3.63l77.2-71.75,6-5.55,6.75-6.28a13.58,13.58,0,0,0,1.34-1.19A49.19,49.19,0,0,0,352.65,233.26ZM243.12,362.17l-33,8.71,9.14-32.65,64.26-62.16,25.17,25.17Zm88.28-82.05-25.56-25.56c-.26.21-.51.42-.76.65q.36-.35.69-.72l.07.07c7.73-6.25,18.19-6.08,24.89.62A18.16,18.16,0,0,1,331.4,280.12Z"/><path class="cls-1" d="M305.84,254.56c-.26.21-.51.42-.76.65q.36-.35.69-.72Z"/><path class="cls-1" d="M305.84,254.56c-.26.21-.51.42-.76.65q.36-.35.69-.72Z"/></g></g></svg>
