<svg xmlns="http://www.w3.org/2000/svg" viewBox="0 0 57.87 54.08"><defs><style>.cls-1{fill:#fff;}</style></defs><g id="레이어_2" data-name="레이어 2"><g id="레이어_1-2" data-name="레이어 1"><ellipse class="cls-1" cx="28.39" cy="28.78" rx="0.54" ry="1.04"/><ellipse class="cls-1" cx="29.79" cy="28.78" rx="0.54" ry="1.04"/><path class="cls-1" d="M57.87,28.93A28.91,28.91,0,0,1,43.26,54.08a17.3,17.3,0,0,0-5.77-6.88c5.54-2,9.3-6.2,9.3-12.24a14.44,14.44,0,0,0-1.61-6.61,9,9,0,0,0,2.73-6.62c0-4.7-3.28-8.5-7.32-8.5-3.4,0-6.26,2.69-7.07,6.34A20,20,0,0,0,25,19.44c-.74-3.78-3.65-6.6-7.14-6.6-4,0-7.32,3.81-7.32,8.5A9.05,9.05,0,0,0,13,27.75,14.35,14.35,0,0,0,11.08,35c0,6,3.76,10.21,9.3,12.24a17.35,17.35,0,0,0-5.77,6.88A28.94,28.94,0,1,1,57.87,28.93Z"/><path class="cls-1" d="M39.23,36.72c-9.49,10.93-17.94,3.08-20.29.44a.48.48,0,0,1,.35-.8l19.56-.44A.49.49,0,0,1,39.23,36.72Z"/><path class="cls-1" d="M41.2,14.73c-2.71,0-4.92,2.54-4.92,5.66v.06c0,3.1,2.23,5.6,4.92,5.6a4.28,4.28,0,0,0,2.09-.54,5.76,5.76,0,0,0,2.83-5.12C46.12,17.27,43.91,14.73,41.2,14.73ZM42.87,25a3.67,3.67,0,0,1-1.67.4A4.18,4.18,0,0,1,37.53,23,2.89,2.89,0,0,0,39.72,24a2.73,2.73,0,0,0,1.6-.52,3.78,3.78,0,0,0,1.52-3.11,3.4,3.4,0,0,0-3.12-3.62,2.87,2.87,0,0,0-2.18,1,4.19,4.19,0,0,1,3.66-2.44c2.36,0,4.28,2.26,4.28,5A5.12,5.12,0,0,1,42.87,25Z"/><path class="cls-1" d="M22.61,20.07c-.13-3-2.28-5.34-4.9-5.34s-4.92,2.54-4.92,5.66A5.88,5.88,0,0,0,15,25.07a4.43,4.43,0,0,0,2.76,1c2.71,0,4.92-2.53,4.92-5.66A1.72,1.72,0,0,0,22.61,20.07Zm-4.9,5.34a3.83,3.83,0,0,1-2.33-.81,5.3,5.3,0,0,1-2-4.21c0-2.76,1.92-5,4.28-5a4.17,4.17,0,0,1,3.64,2.42,2.88,2.88,0,0,0-2.17-1,3.4,3.4,0,0,0-3.12,3.62,3.86,3.86,0,0,0,1,2.67,2.84,2.84,0,0,0,2.1,1,2.92,2.92,0,0,0,2.18-1A4.19,4.19,0,0,1,17.71,25.41Z"/></g></g></svg>
