<?xml version="1.0" ?>
<svg xmlns="http://www.w3.org/2000/svg" viewBox="0 0 64 64" fill="currentColor">
  <g>
    <path d="M43.98502,0h-36.88v64h49.78998V12.91998L43.98502,0z M54.89499,62H9.10501V2h33.45996v12.33002h12.33002V62z"/>
    <polygon points="47.50497,37.14001 41.94498,37.14001 41.94498,56.27002 39.06497,56.27002 39.06497,40.14001 33.50497,40.14001    33.50497,56.27002 30.62497,56.27002 30.62497,43.14001 25.06497,43.14001 25.06497,56.27002 22.18497,56.27002 22.18497,46.14001    16.62497,46.14001 16.62497,56.27002 13.51498,56.27002 13.51498,58.27002 50.49496,58.27002 50.49496,56.27002 47.50497,56.27002     "/>
    <rect height="2" width="18.3916" x="16.64163" y="9.78815"/>
    <rect height="2" width="34.41699" x="13.65823" y="24.51764"/>
    <rect height="2" width="34.41699" x="13.65823" y="29.62213"/>
    <rect height="2" width="34.41699" x="13.65823" y="19.41315"/>
  </g>
</svg>
