<svg xmlns="http://www.w3.org/2000/svg" viewBox="0 0 29.47 29.6"><defs><style>.cls-1{fill:none;}.cls-2{fill:#707070;}</style></defs><g id="레이어_2" data-name="레이어 2"><g id="레이어_1-2" data-name="레이어 1"><g id="그룹_35" data-name="그룹 35"><g id="타원_3" data-name="타원 3"><circle class="cls-1" cx="10" cy="10" r="10"/><path class="cls-2" d="M10,20A10,10,0,1,1,20,10,10,10,0,0,1,10,20ZM10,4a6,6,0,1,0,6,6A6,6,0,0,0,10,4Z"/></g><path class="cls-2" d="M27.47,29.6A2,2,0,0,1,26.06,29l-8.28-8.3a2,2,0,0,1,2.83-2.83l8.28,8.3a2,2,0,0,1-1.42,3.42Z"/></g></g></g></svg>